{
  "accessors": [
    {
      "bufferView": 2,
      "componentType": 5126,
      "count": 499,
      "max": [
        3.8142509460449219,
        3.8142509460449219,
        12.847726821899414
      ],
      "min": [
        -3.8142509460449219,
        -3.8142509460449219,
        5.2192249298095703
      ],
      "type": "VEC3"
    },
    {
      "bufferView": 2,
      "byteOffset": 5988,
      "componentType": 5126,
      "count": 499,
      "max": [
        1,
        1,
        1
      ],
      "min": [
        -1,
        -1,
        -1
      ],
      "type": "VEC3"
    },
    {
      "bufferView": 1,
      "componentType": 5126,
      "count": 499,
      "max": [
        1.5,
        1
      ],
      "min": [
        0,
        0
      ],
      "type": "VEC2"
    },
    {
      "bufferView": 0,
      "componentType": 5125,
      "count": 2880,
      "max": [
        498
      ],
      "min": [
        0
      ],
      "type": "SCALAR"
    },
    {
      "bufferView": 2,
      "byteOffset": 11976,
      "componentType": 5126,
      "count": 6024,
      "max": [
        3.8704359531402588,
        2.1641440391540527,
        8.2464895248413086
      ],
      "min": [
        -3.8154239654541016,
        -4.26422119140625,
        -0.033261001110076904
      ],
      "type": "VEC3"
    },
    {
      "bufferView": 2,
      "byteOffset": 84264,
      "componentType": 5126,
      "count": 6024,
      "max": [
        1,
        1,
        0.96559864282608032
      ],
      "min": [
        -1,
        -1,
        -1
      ],
      "type": "VEC3"
    },
    {
      "bufferView": 3,
      "componentType": 5126,
      "count": 6024,
      "max": [
        1,
        0.99999892711639404,
        0.96952426433563232,
        1
      ],
      "min": [
        -0.99999922513961792,
        -0.99997049570083618,
        -0.9734114408493042,
        1
      ],
      "type": "VEC4"
    },
    {
      "bufferView": 1,
      "byteOffset": 3992,
      "componentType": 5126,
      "count": 6024,
      "max": [
        0.83694398403167725,
        0.99949997663497925
      ],
      "min": [
        0.00050000002374872565,
        0.00050000002374872565
      ],
      "type": "VEC2"
    },
    {
      "bufferView": 0,
      "byteOffset": 11520,
      "componentType": 5125,
      "count": 24162,
      "max": [
        6023
      ],
      "min": [
        0
      ],
      "type": "SCALAR"
    },
    {
      "bufferView": 2,
      "byteOffset": 156552,
      "componentType": 5126,
      "count": 1052,
      "max": [
        4.4630718231201172,
        4.4386229515075684,
        8.325836181640625
      ],
      "min": [
        -4.4630708694458008,
        -4.438621997833252,
        1.7100119590759277
      ],
      "type": "VEC3"
    },
    {
      "bufferView": 2,
      "byteOffset": 169176,
      "componentType": 5126,
      "count": 1052,
      "max": [
        1,
        0.99452197551727295,
        1
      ],
      "min": [
        -1,
        -0.99452197551727295,
        -1
      ],
      "type": "VEC3"
    },
    {
      "bufferView": 3,
      "byteOffset": 96384,
      "componentType": 5126,
      "count": 1052,
      "max": [
        1,
        1,
        0.98209118843078613,
        1
      ],
      "min": [
        -0.99860227108001709,
        -1,
        -0.982077956199646,
        1
      ],
      "type": "VEC4"
    },
    {
      "bufferView": 1,
      "byteOffset": 52184,
      "componentType": 5126,
      "count": 1052,
      "max": [
        0.99458199739456177,
        0.99949997663497925
      ],
      "min": [
        0.00050000002374872565,
        0.00050000002374872565
      ],
      "type": "VEC2"
    },
    {
      "bufferView": 0,
      "byteOffset": 108168,
      "componentType": 5125,
      "count": 4716,
      "max": [
        1051
      ],
      "min": [
        0
      ],
      "type": "SCALAR"
    },
    {
      "bufferView": 2,
      "byteOffset": 181800,
      "componentType": 5126,
      "count": 328,
      "max": [
        0.11650300025939941,
        4.4712409973144531,
        13.662314414978027
      ],
      "min": [
        -0.078249000012874603,
        -1.8599770069122314,
        8.2326374053955078
      ],
      "type": "VEC3"
    },
    {
      "bufferView": 2,
      "byteOffset": 185736,
      "componentType": 5126,
      "count": 328,
      "max": [
        1,
        0.99426859617233276,
        0.99999678134918213
      ],
      "min": [
        -1,
        -0.99998688697814941,
        -0.97596174478530884
      ],
      "type": "VEC3"
    },
    {
      "bufferView": 3,
      "byteOffset": 113216,
      "componentType": 5126,
      "count": 328,
      "max": [
        0.96546387672424316,
        0.83998614549636841,
        0.99243861436843872,
        1
      ],
      "min": [
        -0.99994432926177979,
        -0.88840526342391968,
        -0.98515641689300537,
        -1
      ],
      "type": "VEC4"
    },
    {
      "bufferView": 1,
      "byteOffset": 60600,
      "componentType": 5126,
      "count": 328,
      "max": [
        0.99760699272155762,
        0.99949997663497925
      ],
      "min": [
        0.00050000002374872565,
        0.00050000002374872565
      ],
      "type": "VEC2"
    },
    {
      "bufferView": 0,
      "byteOffset": 127032,
      "componentType": 5125,
      "count": 1062,
      "max": [
        327
      ],
      "min": [
        0
      ],
      "type": "SCALAR"
    },
    {
      "bufferView": 2,
      "byteOffset": 189672,
      "componentType": 5126,
      "count": 417,
      "max": [
        0.53893297910690308,
        0.52269601821899414,
        14.268603324890137
      ],
      "min": [
        -0.49824199080467224,
        -0.49872198700904846,
        12.809002876281738
      ],
      "type": "VEC3"
    },
    {
      "bufferView": 2,
      "byteOffset": 194676,
      "componentType": 5126,
      "count": 417,
      "max": [
        0.99827754497528076,
        0.99329990148544312,
        1
      ],
      "min": [
        -0.99827700853347778,
        -0.99329990148544312,
        -0.7755279541015625
      ],
      "type": "VEC3"
    },
    {
      "bufferView": 3,
      "byteOffset": 118464,
      "componentType": 5126,
      "count": 417,
      "max": [
        0.94521200656890869,
        0.96497708559036255,
        0.99108189344406128,
        1
      ],
      "min": [
        -0.93899458646774292,
        -0.99989950656890869,
        -0.98851698637008667,
        1
      ],
      "type": "VEC4"
    },
    {
      "bufferView": 1,
      "byteOffset": 63224,
      "componentType": 5126,
      "count": 417,
      "max": [
        0.85670202970504761,
        0.91647899150848389
      ],
      "min": [
        0.073937997221946716,
        0.14702899754047394
      ],
      "type": "VEC2"
    },
    {
      "bufferView": 0,
      "byteOffset": 131280,
      "componentType": 5125,
      "count": 1890,
      "max": [
        416
      ],
      "min": [
        0
      ],
      "type": "SCALAR"
    },
    {
      "bufferView": 2,
      "byteOffset": 199680,
      "componentType": 5126,
      "count": 407,
      "max": [
        4.2724499702453613,
        4.0757899284362793,
        0.99151402711868286
      ],
      "min": [
        -4.1969079971313477,
        -4.7091641426086426,
        0.85624498128890991
      ],
      "type": "VEC3"
    },
    {
      "bufferView": 2,
      "byteOffset": 204564,
      "componentType": 5126,
      "count": 407,
      "max": [
        0.97328376770019531,
        0.97413885593414307,
        0.98646461963653564
      ],
      "min": [
        -0.97100025415420532,
        -0.96921086311340332,
        -0.98646461963653564
      ],
      "type": "VEC3"
    },
    {
      "bufferView": 3,
      "byteOffset": 125136,
      "componentType": 5126,
      "count": 407,
      "max": [
        0.99999153614044189,
        0.9729917049407959,
        0.96484798192977905,
        1
      ],
      "min": [
        -0.98979020118713379,
        -0.99946272373199463,
        -0.96587157249450684,
        -1
      ],
      "type": "VEC4"
    },
    {
      "bufferView": 1,
      "byteOffset": 66560,
      "componentType": 5126,
      "count": 407,
      "max": [
        0.99949997663497925,
        0.99921101331710815
      ],
      "min": [
        0.00050000002374872565,
        0.00050000002374872565
      ],
      "type": "VEC2"
    },
    {
      "bufferView": 0,
      "byteOffset": 138840,
      "componentType": 5125,
      "count": 2208,
      "max": [
        406
      ],
      "min": [
        0
      ],
      "type": "SCALAR"
    }
  ],
  "asset": {
    "extras": {
      "author": "MariangelesLB111 (https://sketchfab.com/mariangeleslb111)",
      "license": "CC-BY-4.0 (http://creativecommons.org/licenses/by/4.0/)",
      "source": "https://sketchfab.com/3d-models/earth-mini-bar-fbfe5855b91c49899cf446f52a7b88a0",
      "title": "Earth Mini-bar"
    },
    "generator": "Sketchfab-9.37.0",
    "version": "2.0"
  },
  "bufferViews": [
    {
      "buffer": 0,
      "byteLength": 147672,
      "byteOffset": 0,
      "name": "floatBufferViews",
      "target": 34963
    },
    {
      "buffer": 0,
      "byteLength": 69816,
      "byteOffset": 147672,
      "byteStride": 8,
      "name": "floatBufferViews",
      "target": 34962
    },
    {
      "buffer": 0,
      "byteLength": 209448,
      "byteOffset": 217488,
      "byteStride": 12,
      "name": "floatBufferViews",
      "target": 34962
    },
    {
      "buffer": 0,
      "byteLength": 131648,
      "byteOffset": 426936,
      "byteStride": 16,
      "name": "floatBufferViews",
      "target": 34962
    }
  ],
  "buffers": [
    {
      "byteLength": 558584,
      "uri": "scene.bin"
    }
  ],
  "images": [
    {
      "uri": "textures/07___Default_baseColor.jpeg"
    },
    {
      "uri": "textures/07___Default_metallicRoughness.png"
    },
    {
      "uri": "textures/material_baseColor.png"
    },
    {
      "uri": "textures/material_metallicRoughness.png"
    },
    {
      "uri": "textures/material_normal.png"
    },
    {
      "uri": "textures/material_2_baseColor.png"
    },
    {
      "uri": "textures/material_2_metallicRoughness.png"
    },
    {
      "uri": "textures/material_3_baseColor.png"
    },
    {
      "uri": "textures/material_3_metallicRoughness.png"
    },
    {
      "uri": "textures/material_3_normal.png"
    },
    {
      "uri": "textures/material_4_baseColor.png"
    },
    {
      "uri": "textures/material_4_metallicRoughness.png"
    },
    {
      "uri": "textures/material_4_normal.png"
    }
  ],
  "materials": [
    {
      "doubleSided": true,
      "name": "07___Default",
      "occlusionTexture": {
        "index": 1,
        "strength": 1,
        "texCoord": 0
      },
      "pbrMetallicRoughness": {
        "baseColorFactor": [
          1,
          1,
          1,
          1
        ],
        "baseColorTexture": {
          "index": 0,
          "texCoord": 0
        },
        "metallicFactor": 0,
        "metallicRoughnessTexture": {
          "index": 1,
          "texCoord": 0
        },
        "roughnessFactor": 0.59999999999999998
      }
    },
    {
      "doubleSided": true,
      "name": "material",
      "normalTexture": {
        "index": 4,
        "scale": 1,
        "texCoord": 0
      },
      "occlusionTexture": {
        "index": 3,
        "strength": 1,
        "texCoord": 0
      },
      "pbrMetallicRoughness": {
        "baseColorFactor": [
          1,
          1,
          1,
          1
        ],
        "baseColorTexture": {
          "index": 2,
          "texCoord": 0
        },
        "metallicFactor": 1,
        "metallicRoughnessTexture": {
          "index": 3,
          "texCoord": 0
        },
        "roughnessFactor": 1
      }
    },
    {
      "doubleSided": true,
      "name": "material_2",
      "normalTexture": {
        "index": 4,
        "scale": 1,
        "texCoord": 0
      },
      "occlusionTexture": {
        "index": 6,
        "strength": 1,
        "texCoord": 0
      },
      "pbrMetallicRoughness": {
        "baseColorFactor": [
          1,
          1,
          1,
          1
        ],
        "baseColorTexture": {
          "index": 5,
          "texCoord": 0
        },
        "metallicFactor": 1,
        "metallicRoughnessTexture": {
          "index": 6,
          "texCoord": 0
        },
        "roughnessFactor": 1
      }
    },
    {
      "doubleSided": true,
      "name": "material_3",
      "normalTexture": {
        "index": 9,
        "scale": 1,
        "texCoord": 0
      },
      "occlusionTexture": {
        "index": 8,
        "strength": 1,
        "texCoord": 0
      },
      "pbrMetallicRoughness": {
        "baseColorFactor": [
          1,
          1,
          1,
          1
        ],
        "baseColorTexture": {
          "index": 7,
          "texCoord": 0
        },
        "metallicFactor": 1,
        "metallicRoughnessTexture": {
          "index": 8,
          "texCoord": 0
        },
        "roughnessFactor": 1
      }
    },
    {
      "doubleSided": true,
      "name": "material_4",
      "normalTexture": {
        "index": 12,
        "scale": 1,
        "texCoord": 0
      },
      "occlusionTexture": {
        "index": 11,
        "strength": 1,
        "texCoord": 0
      },
      "pbrMetallicRoughness": {
        "baseColorFactor": [
          1,
          1,
          1,
          1
        ],
        "baseColorTexture": {
          "index": 10,
          "texCoord": 0
        },
        "metallicFactor": 1,
        "metallicRoughnessTexture": {
          "index": 11,
          "texCoord": 0
        },
        "roughnessFactor": 1
      }
    }
  ],
  "meshes": [
    {
      "primitives": [
        {
          "attributes": {
            "NORMAL": 1,
            "POSITION": 0,
            "TEXCOORD_0": 2
          },
          "indices": 3,
          "material": 0,
          "mode": 4
        }
      ]
    },
    {
      "primitives": [
        {
          "attributes": {
            "NORMAL": 5,
            "POSITION": 4,
            "TANGENT": 6,
            "TEXCOORD_0": 7
          },
          "indices": 8,
          "material": 1,
          "mode": 4
        }
      ]
    },
    {
      "primitives": [
        {
          "attributes": {
            "NORMAL": 10,
            "POSITION": 9,
            "TANGENT": 11,
            "TEXCOORD_0": 12
          },
          "indices": 13,
          "material": 2,
          "mode": 4
        }
      ]
    },
    {
      "primitives": [
        {
          "attributes": {
            "NORMAL": 15,
            "POSITION": 14,
            "TANGENT": 16,
            "TEXCOORD_0": 17
          },
          "indices": 18,
          "material": 3,
          "mode": 4
        }
      ]
    },
    {
      "primitives": [
        {
          "attributes": {
            "NORMAL": 20,
            "POSITION": 19,
            "TANGENT": 21,
            "TEXCOORD_0": 22
          },
          "indices": 23,
          "material": 3,
          "mode": 4
        }
      ]
    },
    {
      "primitives": [
        {
          "attributes": {
            "NORMAL": 25,
            "POSITION": 24,
            "TANGENT": 26,
            "TEXCOORD_0": 27
          },
          "indices": 28,
          "material": 4,
          "mode": 4
        }
      ]
    }
  ],
  "nodes": [
    {
      "children": [
        1
      ],
      "name": "RootNode (gltf orientation matrix)",
      "rotation": [
        -0.70710678118654746,
        -0,
        -0,
        0.70710678118654757
      ]
    },
    {
      "children": [
        2
      ],
      "name": "RootNode (model correction matrix)"
    },
    {
      "children": [
        3,
        4,
        5,
        6,
        7,
        8
      ],
      "name": "Globofin.obj.cleaner.materialmerger.gles"
    },
    {
      "mesh": 0,
      "name": ""
    },
    {
      "mesh": 1,
      "name": ""
    },
    {
      "mesh": 2,
      "name": ""
    },
    {
      "mesh": 3,
      "name": ""
    },
    {
      "mesh": 4,
      "name": ""
    },
    {
      "mesh": 5,
      "name": ""
    }
  ],
  "samplers": [
    {
      "magFilter": 9729,
      "minFilter": 9987,
      "wrapS": 10497,
      "wrapT": 10497
    }
  ],
  "scene": 0,
  "scenes": [
    {
      "name": "OSG_Scene",
      "nodes": [
        0
      ]
    }
  ],
  "textures": [
    {
      "sampler": 0,
      "source": 0
    },
    {
      "sampler": 0,
      "source": 1
    },
    {
      "sampler": 0,
      "source": 2
    },
    {
      "sampler": 0,
      "source": 3
    },
    {
      "sampler": 0,
      "source": 4
    },
    {
      "sampler": 0,
      "source": 5
    },
    {
      "sampler": 0,
      "source": 6
    },
    {
      "sampler": 0,
      "source": 7
    },
    {
      "sampler": 0,
      "source": 8
    },
    {
      "sampler": 0,
      "source": 9
    },
    {
      "sampler": 0,
      "source": 10
    },
    {
      "sampler": 0,
      "source": 11
    },
    {
      "sampler": 0,
      "source": 12
    }
  ]
}

